<svg width="30" height="20" viewBox="0 0 30 20" fill="none" xmlns="http://www.w3.org/2000/svg">
<path d="M28.7173 0H9.11444C8.40714 0 7.8317 0.659871 7.8317 1.47095V3.5226H1.28267C0.575377 3.5226 0 4.1824 0 4.99348V18.5291C0 19.3401 0.575377 20 1.28267 20H20.8856C21.5929 20 22.1683 19.3401 22.1683 18.5291V16.4774H28.7174C29.4247 16.4774 30 15.8177 30 15.0066V1.47095C30.0001 0.659871 29.4246 0 28.7173 0ZM21.3998 18.5291C21.3998 18.8542 21.1691 19.1189 20.8856 19.1189H1.28267C0.999103 19.1189 0.768399 18.8542 0.768399 18.5291V10.4836H21.3998V18.5291ZM0.825998 9.6025V7.48775H21.3422V9.6025H0.825998ZM21.3998 6.60661H0.768337V4.99348C0.768337 4.6683 0.999041 4.40375 1.28261 4.40375H20.8856C21.1691 4.40375 21.3998 4.6683 21.3998 4.99348V6.60661ZM29.2317 15.0065C29.2317 15.3316 29.001 15.5962 28.7174 15.5962H22.1682V13.1632C22.5514 13.7815 23.1807 14.1864 23.8912 14.1864C24.2204 14.1864 24.5405 14.0985 24.8311 13.9325C25.1221 14.0992 25.4428 14.1864 25.7737 14.1864C26.9389 14.1864 27.8868 13.0993 27.8868 11.7632C27.8868 10.427 26.9389 9.34006 25.7737 9.34006C25.4433 9.34006 25.1228 9.42761 24.8319 9.59418C24.5412 9.42839 24.2175 9.34006 23.8912 9.34006C23.1806 9.34006 22.5514 9.74475 22.1682 10.3632V7.48768H23.0164V6.60654H22.1682V4.99341C22.1682 4.18233 21.5929 3.52253 20.8856 3.52253H8.6001V1.47088C8.6001 1.14563 8.8308 0.881074 9.11444 0.881074H28.7174C29.001 0.881074 29.2317 1.14563 29.2317 1.47088V15.0065ZM24.1278 13.2805C24.0501 13.2963 23.9713 13.3053 23.8912 13.3053C23.1497 13.3053 22.5465 12.6135 22.5465 11.7633C22.5465 10.913 23.1497 10.2213 23.8912 10.2213C23.9717 10.2213 24.0507 10.2294 24.1281 10.2451C23.8297 10.6705 23.6607 11.2044 23.6607 11.7633C23.6608 12.3207 23.8299 12.8548 24.1278 13.2805ZM24.4292 11.7633C24.4292 11.2578 24.6457 10.7837 25.0087 10.4951C25.2338 10.316 25.4985 10.2213 25.7739 10.2213C26.5154 10.2213 27.1186 10.913 27.1186 11.7633C27.1186 12.6136 26.5153 13.3053 25.7739 13.3053C25.4935 13.3053 25.2249 13.2074 24.9973 13.0225C24.6416 12.7332 24.4292 12.2625 24.4292 11.7633Z" fill="#6C757D"/>
</svg>
