<svg width="17" height="17" viewBox="0 0 17 17" fill="none" xmlns="http://www.w3.org/2000/svg">
<path d="M13.0504 10.5652V12.5759C13.0504 12.6159 13.0446 12.6531 13.0361 12.6874C12.996 12.8848 12.8215 13.0335 12.6156 13.0335H4.39842C4.17819 13.0335 3.99514 12.8647 3.97226 12.6502C3.96654 12.6245 3.96654 12.6016 3.96654 12.573V10.5623C3.96654 10.3249 4.16103 10.1333 4.39556 10.1333C4.51283 10.1333 4.62151 10.1819 4.69873 10.2591C4.77596 10.3364 4.82458 10.4451 4.82458 10.5623V12.1726H12.1952V10.5623C12.1952 10.3249 12.3897 10.1333 12.6242 10.1333C12.7415 10.1333 12.8501 10.1819 12.9274 10.2591C13.0017 10.3392 13.0504 10.4479 13.0504 10.5652Z" fill="#009688"/>
<path d="M10.9823 8.55112L8.87434 10.659C8.87148 10.6648 8.86576 10.6676 8.8629 10.6705C8.78567 10.7477 8.68557 10.7963 8.58546 10.8106C8.57688 10.8106 8.5683 10.8135 8.55972 10.8135C8.54256 10.8164 8.5254 10.8164 8.50824 10.8164L8.45961 10.8135C8.45103 10.8135 8.44245 10.8106 8.43387 10.8106C8.33091 10.7963 8.23366 10.7477 8.15644 10.6705C8.15358 10.6676 8.14786 10.6619 8.145 10.659L6.03707 8.55112C5.93983 8.45388 5.8912 8.32517 5.8912 8.19646C5.8912 8.06776 5.93983 7.93905 6.03707 7.8418C6.23156 7.64731 6.54904 7.64731 6.74639 7.8418L8.01343 9.10885V4.46683C8.01343 4.19226 8.23938 3.96631 8.51396 3.96631C8.65124 3.96631 8.77709 4.02351 8.86862 4.11218C8.96014 4.2037 9.01448 4.32669 9.01448 4.46683V9.10885L10.2815 7.8418C10.476 7.64731 10.7935 7.64731 10.9908 7.8418C11.1768 8.03915 11.1768 8.35663 10.9823 8.55112Z" fill="#009688"/>
<rect x="0.283333" y="0.283333" width="16.4333" height="16.4333" rx="2.55" stroke="#009688" stroke-width="0.566667"/>
</svg>
