<svg width="16" height="10" viewBox="0 0 16 10" fill="none" xmlns="http://www.w3.org/2000/svg">
<path d="M13.3099 2.35167C12.5116 1.67668 11.6955 1.13732 10.8845 0.748613C9.84801 0.251862 8.81561 0 7.81595 0C6.81629 0 5.78389 0.251862 4.74747 0.748582C3.93639 1.13732 3.12034 1.67668 2.32205 2.35164C0.974229 3.49127 0.14311 4.62046 0.108376 4.66798C-0.0361254 4.86572 -0.0361254 5.13428 0.108376 5.33202C0.143079 5.37954 0.974198 6.50873 2.32205 7.64836C3.12034 8.32335 3.93639 8.86271 4.74747 9.25142C5.78389 9.74817 6.81632 10 7.81595 10C8.81558 10 9.84801 9.74814 10.8844 9.25142C11.6955 8.86268 12.5116 8.32332 13.3099 7.64836C14.6577 6.50873 15.4888 5.37954 15.5235 5.33202C15.668 5.13428 15.668 4.86572 15.5235 4.66798C15.4888 4.62049 14.6577 3.4913 13.3099 2.35167ZM7.81595 8.87456C4.76157 8.87456 2.10623 5.99388 1.28121 5.00003C2.10661 4.00581 4.76178 1.1255 7.81595 1.1255C10.8701 1.1255 13.5253 4.00578 14.3507 5.00003C13.5253 5.99428 10.8701 8.87456 7.81595 8.87456Z" fill="#6C757D"/>
<path d="M7.81613 2.15503C6.24737 2.15503 4.97112 3.43128 4.97112 5.00004C4.97112 6.5688 6.24737 7.84505 7.81613 7.84505C9.38489 7.84505 10.6611 6.5688 10.6611 5.00004C10.6611 3.43128 9.38489 2.15503 7.81613 2.15503ZM7.81613 6.71955C6.86799 6.71955 6.09661 5.94818 6.09661 5.00004C6.09661 4.0519 6.86799 3.28053 7.81613 3.28053C8.76427 3.28053 9.53564 4.0519 9.53564 5.00004C9.53564 5.94818 8.76427 6.71955 7.81613 6.71955Z" fill="#6C757D"/>
</svg>
