<svg width="18" height="18" viewBox="0 0 18 18" fill="none" xmlns="http://www.w3.org/2000/svg">
<path d="M9 0C6.61305 0 4.32387 0.948212 2.63604 2.63604C0.948212 4.32387 0 6.61305 0 9C0 11.3869 0.948212 13.6761 2.63604 15.364C4.32387 17.0518 6.61305 18 9 18C11.3869 18 13.6761 17.0518 15.364 15.364C17.0518 13.6761 18 11.3869 18 9C18 6.61305 17.0518 4.32387 15.364 2.63604C13.6761 0.948212 11.3869 0 9 0ZM5.80852 4.90922C5.92891 4.90913 6.04811 4.9332 6.15904 4.98C6.26997 5.0268 6.37038 5.09538 6.45434 5.18168L9 7.72734L11.5457 5.18168C11.7087 5.01404 11.9306 4.91644 12.1644 4.90957C12.3457 4.90422 12.5244 4.95377 12.677 5.05172C12.8297 5.14966 12.9492 5.29144 13.0199 5.45847C13.0905 5.62549 13.1091 5.80998 13.0732 5.98775C13.0372 6.16551 12.9484 6.32827 12.8183 6.45469L10.2727 9L12.8183 11.5457C12.9035 11.6289 12.9714 11.7282 13.0179 11.8378C13.0645 11.9474 13.0888 12.0651 13.0895 12.1842C13.0902 12.3033 13.0673 12.4214 13.0221 12.5315C12.9768 12.6417 12.9102 12.7418 12.826 12.826C12.7418 12.9102 12.6417 12.9769 12.5316 13.0222C12.4214 13.0674 12.3034 13.0904 12.1843 13.0897C12.0652 13.089 11.9474 13.0647 11.8378 13.0182C11.7282 12.9717 11.6289 12.9039 11.5457 12.8187L9 10.273L6.45434 12.8187C6.37111 12.9039 6.2718 12.9717 6.16218 13.0182C6.05255 13.0647 5.93479 13.089 5.8157 13.0897C5.69661 13.0904 5.57857 13.0674 5.46842 13.0222C5.35827 12.9769 5.2582 12.9102 5.174 12.826C5.08981 12.7418 5.02316 12.6417 4.97792 12.5315C4.93269 12.4214 4.90976 12.3033 4.91048 12.1842C4.91119 12.0651 4.93553 11.9474 4.98208 11.8378C5.02864 11.7282 5.09648 11.6289 5.18168 11.5457L7.72734 9L5.18168 6.45469C5.0533 6.32988 4.96505 6.16961 4.92824 5.99438C4.89142 5.81916 4.9077 5.63693 4.975 5.471C5.0423 5.30508 5.15756 5.163 5.30603 5.06292C5.45451 4.96285 5.62946 4.90933 5.80852 4.90922Z" fill="#F90909"/>
</svg>
