<svg width="18" height="18" viewBox="0 0 18 18" fill="none" xmlns="http://www.w3.org/2000/svg">
<path d="M9 18C10.78 18 12.5201 17.4722 14.0001 16.4832C15.4802 15.4943 16.6337 14.0887 17.3149 12.4442C17.9961 10.7996 18.1743 8.99002 17.8271 7.24419C17.4798 5.49836 16.6226 3.89471 15.364 2.63604C14.1053 1.37737 12.5016 0.520203 10.7558 0.172936C9.00998 -0.17433 7.20038 0.00389957 5.55585 0.685088C3.91131 1.36628 2.50571 2.51983 1.51677 3.99987C0.527841 5.47991 0 7.21997 0 9C0.00263629 11.3861 0.951694 13.6738 2.63895 15.3611C4.32621 17.0483 6.61386 17.9974 9 18ZM5.2242 8.964L7.2 10.9394L12.7758 5.364L13.6242 6.21252L7.6242 12.2125C7.51168 12.325 7.3591 12.3882 7.2 12.3882C7.0409 12.3882 6.88831 12.325 6.7758 12.2125L4.3758 9.81252L5.2242 8.964Z" fill="#09564F"/>
</svg>
