<svg width="18" height="18" viewBox="0 0 18 18" fill="none" xmlns="http://www.w3.org/2000/svg">
<path d="M9 0C4.03579 0 0 4.03579 0 9C0 13.9642 4.03579 18 9 18C13.9642 18 18 13.9642 18 9C18 4.03579 13.9642 0 9 0ZM7.86316 11.6905C7.86316 12.4674 7.23789 13.0926 6.46105 13.0926C5.68421 13.0926 5.05895 12.4674 5.05895 11.6905V6.30947C5.05895 5.53263 5.68421 4.90737 6.46105 4.90737C7.23789 4.90737 7.86316 5.53263 7.86316 6.30947V11.6905ZM12.9411 11.6905C12.9411 12.4674 12.3158 13.0926 11.5389 13.0926C10.7621 13.0926 10.1368 12.4674 10.1368 11.6905V6.30947C10.1368 5.53263 10.7621 4.90737 11.5389 4.90737C12.3158 4.90737 12.9411 5.53263 12.9411 6.30947V11.6905Z" fill="#F29B17"/>
</svg>
