<svg width="20" height="16" viewBox="0 0 20 16" fill="none" xmlns="http://www.w3.org/2000/svg">
<path d="M11.4331 0.01391C10.8672 0.0140664 10.3029 0.0743746 9.7497 0.193818C8.5812 -0.0681916 7.36878 -0.0645116 6.20189 0.204587C5.03499 0.473685 3.9434 1.00133 3.00765 1.74861C2.0719 2.49588 1.31586 3.44371 0.795308 4.52218C0.274758 5.60064 0.00297998 6.78221 2.43684e-05 7.97973C-0.00293124 9.17724 0.263011 10.3601 0.778232 11.4412C1.29345 12.5222 2.0448 13.4737 2.97686 14.2256C3.90891 14.9775 4.99788 15.5105 6.16343 15.7854C7.32898 16.0602 8.54137 16.0699 9.71115 15.8137C10.8072 16.0546 11.9417 16.062 13.0408 15.8354C14.1399 15.6088 15.1789 15.1533 16.0903 14.4986C17.0018 13.8439 17.7651 13.0046 18.3307 12.0353C18.8962 11.0661 19.2514 9.98856 19.373 8.87297C19.4945 7.75737 19.3798 6.62867 19.0363 5.56033C18.6928 4.492 18.1282 3.50796 17.3793 2.67227C16.6303 1.83658 15.7137 1.16797 14.6893 0.709954C13.6648 0.251936 12.5553 0.0147765 11.4331 0.01391V0.01391ZM12.4997 14.6635C13.5842 13.9348 14.4733 12.9511 15.089 11.7988C15.7048 10.6464 16.0285 9.3606 16.0317 8.05404C16.0348 6.74749 15.7174 5.46011 15.1072 4.30478C14.497 3.14946 13.6127 2.16148 12.5319 1.42747C14.1059 1.68224 15.5376 2.48992 16.5697 3.70544C17.6017 4.92096 18.1665 6.46465 18.1627 8.05921C18.1588 9.65378 17.5865 11.1947 16.5485 12.4052C15.5106 13.6157 14.075 14.4164 12.4997 14.6635V14.6635Z" fill="#4C68CC"/>
</svg>
