<svg width="17" height="20" viewBox="0 0 17 20" fill="none" xmlns="http://www.w3.org/2000/svg">
<path d="M13.4205 10.404C13.3979 9.81417 13.4038 9.22204 13.409 8.64859C13.4117 8.39089 13.4143 8.13351 13.4143 7.87646L13.415 7.20892V7.02073C13.4136 6.30466 13.4123 5.56499 13.4189 4.83286C12.5077 4.61122 11.5887 4.38105 10.6986 4.1581C9.97167 3.97581 9.2202 3.78827 8.48151 3.6063C8.42872 3.59351 8.35856 3.59286 8.31135 3.60433C7.58577 3.78237 6.84774 3.96728 6.13364 4.1463C5.22741 4.37319 4.29167 4.60696 3.36545 4.83187L3.36807 5.44532C3.37659 7.09384 3.3861 8.79909 3.36217 10.4788C3.34545 11.6535 3.71069 12.6758 4.47725 13.607C5.41495 14.7443 6.6602 15.6345 8.39102 16.404C9.8638 15.7614 11.032 14.9758 11.9595 14.004C12.994 12.9194 13.472 11.742 13.4205 10.404ZM11.6753 8.01515C11.2297 8.58695 10.7828 9.15745 10.3382 9.72991C9.61495 10.6624 8.89495 11.5974 8.17003 12.5286C7.76217 13.0525 7.43397 13.047 7.0461 12.5158C6.40479 11.6381 5.76315 10.7607 5.12282 9.88236C4.90643 9.58532 4.90872 9.27909 5.12545 9.07777C5.34151 8.87712 5.65233 8.89679 5.92774 9.13515C6.39823 9.54269 6.86577 9.95417 7.33561 10.363C7.41102 10.4286 7.49233 10.4879 7.64676 10.6102C7.70741 10.5125 7.74741 10.4102 7.81856 10.3388C8.80774 9.34302 9.79921 8.34925 10.7966 7.36171C10.9041 7.25515 11.0438 7.15384 11.1858 7.11581C11.4212 7.05253 11.6294 7.14532 11.7513 7.36728C11.8779 7.59646 11.8313 7.81482 11.6753 8.01515Z" fill="#6C757D"/>
<path d="M16.7799 10.3666C16.7661 10.0056 16.7622 9.63574 16.7625 9.26721H16.7759L16.7753 6.50984C16.7736 5.60754 16.7723 4.67443 16.7815 3.76361C16.794 2.65082 16.1602 1.83115 15.0861 1.57082C14.0399 1.31738 12.973 1.0505 11.9412 0.792463L11.4815 0.677381C10.7012 0.481972 9.89463 0.280004 9.10021 0.0849225C8.64381 -0.0275365 8.1448 -0.0281922 7.69627 0.0822996C6.82316 0.296398 5.9543 0.513775 5.14545 0.716726C4.14414 0.967545 2.89758 1.27935 1.7107 1.56591C0.636273 1.82492 -0.00175957 2.65279 0.00315846 3.78099L0.0080766 4.7623C0.0179127 6.65049 0.0284044 8.60295 0.000863386 10.5148C-0.0266776 12.4793 0.604798 14.2587 1.87758 15.8043C3.25103 17.4705 5.03234 18.7462 7.48447 19.8197C7.75562 19.9377 8.06512 20 8.37988 20C8.70316 20 9.02676 19.9344 9.31594 19.8102C11.3854 18.9193 13.0415 17.8049 14.3795 16.4036C16.0579 14.6443 16.8654 12.6131 16.7799 10.3666ZM12.9622 15.1498C11.7717 16.3977 10.275 17.4111 8.39135 18.2433C6.17529 17.2469 4.57594 16.097 3.3707 14.6354C2.38808 13.4433 1.92119 12.1338 1.9425 10.6311C1.97398 8.39672 1.96217 6.12984 1.9507 3.93771L1.94742 3.31345C3.11529 3.02951 4.29168 2.73509 5.43332 2.44918C6.38545 2.21082 7.36971 1.96427 8.33955 1.72656C8.36184 1.72099 8.41791 1.71935 8.45824 1.72951C9.41889 1.96591 10.3959 2.2105 11.3409 2.44722C12.4838 2.73345 13.6615 3.02853 14.8353 3.31509C14.8287 4.22164 14.83 5.1341 14.8317 6.02066C14.8317 6.03738 14.8317 6.0541 14.8317 6.07115L14.831 7.17738C14.831 7.51869 14.8277 7.86 14.8245 8.20164C14.8169 8.96328 14.8094 9.75082 14.8389 10.5377C14.9045 12.2492 14.2907 13.7577 12.9622 15.1498Z" fill="#6C757D"/>
</svg>
